Coordinates
version=1
nRows=13
nColumns=40
inDegrees=yes

Units are S.I. units (second, meters, Newtons, ...)
Angles are in degrees.

endheader
time	pelvis_tilt	pelvis_list	pelvis_rotation	pelvis_tx	pelvis_ty	pelvis_tz	hip_flexion_r	hip_adduction_r	hip_rotation_r	knee_angle_r	knee_angle_r_beta	ankle_angle_r	subtalar_angle_r	mtp_angle_r	hip_flexion_l	hip_adduction_l	hip_rotation_l	knee_angle_l	knee_angle_l_beta	ankle_angle_l	subtalar_angle_l	mtp_angle_l	lumbar_extension	lumbar_bending	lumbar_rotation	arm_flex_r	arm_add_r	arm_rot_r	elbow_flex_r	pro_sup_r	wrist_flex_r	wrist_dev_r	arm_flex_l	arm_add_l	arm_rot_l	elbow_flex_l	pro_sup_l	wrist_flex_l	wrist_dev_l
     40.88000000	     -1.91431947	     -4.20503911	      1.25979560	      1.07691144	      0.93210332	      0.41570365	     29.11671214	     -5.27415688	     -3.87511899	     67.20907227	     67.20907227	     -1.73360989	    -15.80429941	      0.86913301	     16.48698951	     -5.45346322	     -6.28768806	     24.14500468	     24.14500468	     11.61752317	    -12.17790082	     -1.11932299	    -11.28680815	      4.22953105	      1.00518332	      5.62685276	    -12.18538188	     -1.55911503	     32.70800081	     45.91212878	      0.00000000	      0.00000000	     13.71381029	    -15.32162477	     -6.45014383	     52.13542346	     45.90536428	      0.00000000	      0.00000000
     40.89335714	     -1.86704487	     -4.32619591	      0.92294188	      1.07592551	      0.93286920	      0.41517626	     29.82399080	     -5.20854471	     -3.99274051	     65.54715813	     65.54715813	     -1.49405738	    -15.17242842	      0.62110112	     15.85700312	     -5.54746728	     -6.41849500	     23.79762897	     23.79762897	     11.76977817	    -12.37202512	     -1.12892532	    -11.44908769	      4.46323690	      1.13461285	      4.17223539	    -12.28980220	     -1.64336298	     31.16863324	     45.97286243	      0.00000000	      0.00000000	     14.92388677	    -15.47878050	     -6.61547706	     53.19660120	     45.96076780	      0.00000000	      0.00000000
     40.90671429	     -1.82260232	     -4.51373005	      0.59040217	      1.07494765	      0.93361074	      0.41472779	     30.39276752	     -5.01579260	     -4.13985273	     63.61039733	     63.61039733	     -1.34625689	    -14.67204564	      0.44284538	     15.23792996	     -5.74551777	     -6.65388865	     23.46020785	     23.46020785	     11.95863235	    -12.37552935	     -1.20875314	    -11.64434039	      4.79886223	      1.13392925	      2.78185290	    -12.36849686	     -1.91270487	     29.85224656	     46.03831254	      0.00000000	      0.00000000	     15.84562654	    -15.75319905	     -6.73815346	     54.76214586	     46.01585238	      0.00000000	      0.00000000
     40.92007143	     -1.77181397	     -4.70185978	      0.26944833	      1.07401173	      0.93436584	      0.41430921	     30.80560879	     -4.82035720	     -4.34967246	     61.36899432	     61.36899432	     -1.22891715	    -14.04864053	      0.35590699	     14.60829985	     -5.93330187	     -6.87686624	     23.11613845	     23.11613845	     12.15089860	    -12.33512327	     -1.27653166	    -11.83584085	      5.18571557	      1.08584161	      1.44783097	    -12.45792365	     -2.24396834	     28.72180589	     46.10162508	      0.00000000	      0.00000000	     16.64865919	    -16.06214793	     -6.85282248	     56.46130312	     46.06877007	      0.00000000	      0.00000000
     40.93342857	     -1.81152902	     -4.81145623	     -0.07593417	      1.07310817	      0.93486034	      0.41410705	     31.15816506	     -4.68212480	     -4.58432275	     58.78137560	     58.78137560	     -1.25738679	    -13.63439396	     -0.49339429	     14.07943032	     -6.06898411	     -7.19767202	     22.77099655	     22.77099655	     12.21848311	    -12.30595851	     -1.54775528	    -11.96246759	      5.35119603	      0.46218448	      0.94011227	    -12.12167330	     -4.33367579	     26.69332602	     46.35489938	      0.00000000	      0.00000000	     16.36999890	    -16.98665787	     -7.02980131	     59.96209213	     46.21559909	      0.00000000	      0.00000000
     40.94678571	     -1.92698634	     -4.93071537	     -0.41955768	      1.07212676	      0.93516526	      0.41391872	     31.48611438	     -4.51222425	     -4.85459119	     55.92243657	     55.92243657	     -0.96232424	    -12.93336262	     -0.35878948	     13.69460024	     -6.18661969	     -7.41733828	     22.52359346	     22.52359346	     12.39283896	    -12.37703407	     -1.54288876	    -11.94700263	      5.62317930	      0.26185483	     -0.28916309	    -12.23564688	     -4.45014951	     26.11891427	     46.37843868	      0.00000000	      0.00000000	     17.32102358	    -17.49346658	     -7.28551659	     60.73011030	     46.25979050	      0.00000000	      0.00000000
     40.96014286	     -1.90080214	     -5.07532696	     -0.78260056	      1.07133421	      0.93571898	      0.41387371	     31.41005183	     -4.33545483	     -5.26598109	     52.56507017	     52.56507017	     -0.59051130	    -11.91075345	     -0.41061354	     13.07004215	     -6.34254648	     -7.68450816	     22.14619627	     22.14619627	     12.57559516	    -12.37059846	     -1.52943119	    -12.14766232	      5.87981107	      0.48211397	     -1.55056789	    -12.46324515	     -4.68294737	     25.47200799	     46.41548431	      0.00000000	      0.00000000	     18.24002714	    -17.58544055	     -7.46743783	     62.21849954	     46.31153466	      0.00000000	      0.00000000
     40.97350000	     -1.99541937	     -5.10490301	     -1.18369753	      1.07046158	      0.93592618	      0.41404824	     31.34380537	     -4.20483955	     -5.64259815	     48.87865470	     48.87865470	     -0.21275695	    -10.81947350	     -0.58237234	     12.61496915	     -6.39500326	     -8.03086357	     21.84094242	     21.84094242	     12.75114266	    -12.38763898	     -1.56059200	    -12.23165194	      6.00163890	      0.58328776	     -2.68650286	    -12.61276927	     -4.96551792	     25.02260358	     46.44923215	      0.00000000	      0.00000000	     19.01202186	    -17.88031887	     -7.65086507	     63.77126490	     46.36385324	      0.00000000	      0.00000000
     40.98685714	     -2.10116183	     -5.12302412	     -1.59290768	      1.06967419	      0.93605639	      0.41442315	     31.06507772	     -4.03897752	     -6.08128014	     44.78023533	     44.78023533	      0.17871189	     -9.45335218	     -1.06816460	     12.16169624	     -6.44685594	     -8.36698284	     21.52235613	     21.52235613	     12.90312678	    -12.35736291	     -1.62154349	    -12.35068424	      6.06629156	      0.71182883	     -3.74983157	    -12.73088573	     -5.36985031	     24.76656600	     46.48557634	      0.00000000	      0.00000000	     19.62250828	    -18.22362315	     -7.83640442	     65.68323306	     46.42444919	      0.00000000	      0.00000000
     41.00021429	     -2.27662276	     -5.06420944	     -2.00510589	      1.06898153	      0.93597574	      0.41491112	     30.49849695	     -3.86520983	     -6.56508343	     39.92962992	     39.92962992	     -0.90545257	     -8.64770908	     -5.50730123	     11.77900807	     -6.43093194	     -8.78849932	     21.19714467	     21.19714467	     12.92711151	    -12.35865093	     -1.95810380	    -12.38926427	      6.07690675	      0.43921833	     -4.48594681	    -12.49867177	     -8.15389045	     24.79815947	     46.70754059	      0.00000000	      0.00000000	     19.45201401	    -18.85272428	     -8.50227212	     68.83345726	     46.68389431	      0.00000000	      0.00000000
     41.01357143	     -2.61222200	     -5.06220555	     -2.40158323	      1.06825170	      0.93562536	      0.41573639	     30.08849846	     -3.51004944	     -6.97141206	     35.22473341	     35.22473341	     -0.44368231	     -7.06033463	     -5.00990238	     11.61283582	     -6.48807818	     -9.07314048	     20.93941104	     20.93941104	     13.05202410	    -12.40634537	     -1.98360123	    -12.15842029	      6.11758747	      0.43156499	     -5.27380445	    -12.53185229	     -8.22464194	     24.59383226	     46.71395257	      0.00000000	      0.00000000	     20.18784946	    -19.25341876	     -8.65145286	     69.60334191	     46.71849075	      0.00000000	      0.00000000
     41.02692857	     -2.59877381	     -5.00265986	     -2.76554361	      1.06795478	      0.93566533	      0.41650423	     29.06376319	     -3.31881601	     -7.80437775	     30.37263920	     30.37263920	      0.10192742	     -4.47618099	     -4.50792152	     10.99017693	     -6.47554682	     -9.49244484	     20.61213752	     20.61213752	     13.23829698	    -12.26558796	     -2.12209948	    -12.33841254	      6.11743633	      0.66838828	     -6.19904261	    -12.67791299	     -8.41983620	     24.68310988	     46.71481799	      0.00000000	      0.00000000	     20.82666053	    -19.43326221	     -8.75996281	     71.15187868	     46.77163055	      0.00000000	      0.00000000
     41.04028571	     -2.78278787	     -4.85615609	     -3.11189699	      1.06773839	      0.93526465	      0.41749662	     28.22850758	     -3.12109851	     -8.58908815	     25.76389477	     25.76389477	      0.69348767	     -1.87084809	     -3.15606974	     10.58124053	     -6.39071477	     -9.92687911	     20.26491013	     20.26491013	     13.34162711	    -12.08571668	     -2.43469436	    -12.24448970	      6.01163911	      0.66474980	     -7.14791762	    -12.71383645	     -8.74896340	     25.36445794	     46.69540544	      0.00000000	      0.00000000	     21.12046410	    -19.76839366	     -8.94035126	     72.85865269	     46.84724916	      0.00000000	      0.00000000
